<?xml version="1.0" encoding="UTF-8" standalone="no"?>
<!-- Created with Inkscape (http://www.inkscape.org/) -->

<svg
   xmlns:dc="http://purl.org/dc/elements/1.1/"
   xmlns:cc="http://creativecommons.org/ns#"
   xmlns:rdf="http://www.w3.org/1999/02/22-rdf-syntax-ns#"
   xmlns:svg="http://www.w3.org/2000/svg"
   xmlns="http://www.w3.org/2000/svg"
   xmlns:sodipodi="http://sodipodi.sourceforge.net/DTD/sodipodi-0.dtd"
   xmlns:inkscape="http://www.inkscape.org/namespaces/inkscape"
   width="420.31036"
   height="183.44513"
   id="svg3019"
   version="1.1"
   inkscape:version="0.48.4 r9939"
   sodipodi:docname="triply.svg">
  <defs
     id="defs3021" />
  <sodipodi:namedview
     id="base"
     pagecolor="#ffffff"
     bordercolor="#666666"
     borderopacity="1.0"
     inkscape:pageopacity="0.0"
     inkscape:pageshadow="2"
     inkscape:zoom="0.98994949"
     inkscape:cx="64.318832"
     inkscape:cy="-69.683008"
     inkscape:document-units="px"
     inkscape:current-layer="layer1"
     showgrid="false"
     fit-margin-top="0"
     fit-margin-left="0"
     fit-margin-right="0"
     fit-margin-bottom="0"
     inkscape:window-width="1855"
     inkscape:window-height="1056"
     inkscape:window-x="65"
     inkscape:window-y="24"
     inkscape:window-maximized="1" />
  <metadata
     id="metadata3024">
    <rdf:RDF>
      <cc:Work
         rdf:about="">
        <dc:format>image/svg+xml</dc:format>
        <dc:type
           rdf:resource="http://purl.org/dc/dcmitype/StillImage" />
        <dc:title />
      </cc:Work>
    </rdf:RDF>
  </metadata>
  <g
     inkscape:label="Layer 1"
     inkscape:groupmode="layer"
     id="layer1"
     transform="translate(-59.658373,-306.02362)">
    <g
       id="g4365"
       transform="matrix(1.1952962,0,0,1.1952962,-84.096937,-126.17397)">
      <path
         inkscape:export-ydpi="91.199997"
         inkscape:export-xdpi="91.199997"
         inkscape:export-filename="/home/lrd900/triply/household/logo.152.png"
         id="path200-6"
         style="fill:#ed583a;fill-opacity:1;fill-rule:nonzero;stroke:none"
         d="m 251.57333,386.40949 c -3.35765,0 -6.07561,-2.71649 -6.07561,-6.08267 0,-3.36488 2.71796,-6.08267 6.07561,-6.08267 3.35634,0 6.07561,2.71779 6.07561,6.08267 0,3.36618 -2.71927,6.08267 -6.07561,6.08267 z m 0,-24.79999 c -10.3288,0 -18.69419,8.37691 -18.69419,18.71732 0,2.20534 0.40077,4.31264 1.09919,6.27745 l -64.57328,0 c -0.94124,4.61069 -2.98951,8.77692 -5.72575,12.40064 l 38.20951,-0.006 0,63.32616 c 4.60045,0.94776 8.75703,2.99231 12.36924,5.73102 l 0,-69.05849 37.31528,0.0471 c 10.32749,0 18.69419,-8.37691 18.69419,-18.71731 0,-10.34041 -8.3667,-18.71731 -18.69419,-18.71731"
         inkscape:connector-curvature="0" />
      <path
         inkscape:export-ydpi="91.199997"
         inkscape:export-xdpi="91.199997"
         inkscape:export-filename="/home/lrd900/triply/household/logo.152.png"
         id="path202-6"
         style="fill:#ed583a;fill-opacity:1;fill-rule:nonzero;stroke:none"
         d="m 138.96563,386.40949 c -3.35765,0 -6.07823,-2.71649 -6.07823,-6.08267 0,-3.36488 2.72058,-6.08267 6.07823,-6.08267 3.35764,0 6.07692,2.71779 6.07692,6.08267 0,3.36618 -2.71928,6.08267 -6.07692,6.08267 z m 87.8144,-24.82744 -87.8144,0.0274 c -10.33011,0 -18.69811,8.37691 -18.69811,18.71731 0,10.34041 8.368,18.71732 18.69811,18.71732 10.32619,0 18.69158,-8.37691 18.69158,-18.71732 0,-2.23541 -0.41122,-4.37016 -1.12792,-6.35719 l 64.52107,0 c 0.95038,-4.60547 2.99473,-8.76516 5.72967,-12.38757"
         inkscape:connector-curvature="0" />
      <path
         inkscape:export-ydpi="91.199997"
         inkscape:export-xdpi="91.199997"
         inkscape:export-filename="/home/lrd900/triply/household/logo.152.png"
         id="path204-9"
         style="fill:#ed583a;fill-opacity:1;fill-rule:nonzero;stroke:none"
         d="m 195.573,498.94474 c -3.35895,0 -6.07823,-2.71779 -6.07823,-6.08397 0,-3.36358 2.71928,-6.08137 6.07823,-6.08137 3.35895,0 6.07692,2.71779 6.07692,6.08137 0,3.36618 -2.71797,6.08397 -6.07692,6.08397 z m 0,-24.80129 c -2.21667,0 -4.33413,0.40525 -6.30538,1.11379 l 0,-63.86084 -12.37706,0 0.007,81.06173 c -0.002,0.13465 -0.0209,0.26799 -0.0209,0.40264 0,10.3404 8.36539,18.72123 18.6955,18.72123 10.32619,0 18.69419,-8.38083 18.69419,-18.72123 0,-10.34172 -8.368,-18.71732 -18.69419,-18.71732"
         inkscape:connector-curvature="0" />
    </g>
    <path
       inkscape:connector-curvature="0"
       id="path4205"
       style="font-size:170px;font-style:normal;font-variant:normal;font-weight:normal;font-stretch:normal;line-height:125%;letter-spacing:0px;word-spacing:0px;fill:#1690c6;fill-opacity:1;stroke:#1690c6;stroke-width:6.6677804;stroke-miterlimit:4;stroke-opacity:1;stroke-dasharray:none;font-family:MAXWELL REGULAR;-inkscape-font-specification:MAXWELL REGULAR"
       d="m 210.61188,452.57677 c 1.26837,0 2.33497,-0.43241 3.19979,-1.29721 0.86479,-0.92246 1.2972,-1.98906 1.29722,-3.19979 l 0,-40.21364 c -2e-5,-6.51483 2.30613,-12.07844 6.91847,-16.6908 4.61229,-4.61225 10.17588,-6.91841 16.69082,-6.91848 l 5.44829,0 c 1.21068,7e-5 2.27729,-0.43234 3.1998,-1.29722 0.86476,-0.86474 1.29716,-1.93133 1.29721,-3.19979 -5e-5,-1.26831 -0.43245,-2.33491 -1.29721,-3.19979 -0.92251,-0.86474 -1.98912,-1.29714 -3.1998,-1.29722 l -5.44829,0 c -8.99405,8e-5 -16.66202,3.17104 -23.00393,9.51291 -6.3996,6.39964 -9.59938,14.09643 -9.59937,23.09039 l 0,40.21364 c -1e-5,1.21073 0.43238,2.27733 1.2972,3.19979 0.92246,0.8648 1.98905,1.29721 3.1998,1.29721" />
    <path
       inkscape:connector-curvature="0"
       id="path4207"
       style="font-size:170px;font-style:normal;font-variant:normal;font-weight:normal;font-stretch:normal;line-height:125%;letter-spacing:0px;word-spacing:0px;fill:#1690c6;fill-opacity:1;stroke:#1690c6;stroke-width:6.6677804;stroke-miterlimit:4;stroke-opacity:1;stroke-dasharray:none;font-family:MAXWELL REGULAR;-inkscape-font-specification:MAXWELL REGULAR"
       d="m 269.4189,355.54519 c 1.90257,9e-5 3.51688,-0.66293 4.84293,-1.98907 1.32603,-1.32594 1.98904,-2.94025 1.98906,-4.84293 -2e-5,-1.90247 -0.66303,-3.51678 -1.98906,-4.84293 -1.32605,-1.32593 -2.94036,-1.98895 -4.84293,-1.98906 -1.90259,1.1e-4 -3.5169,0.66313 -4.84292,1.98906 -1.32606,1.32615 -1.98908,2.94046 -1.98907,4.84293 -10e-6,1.90268 0.66301,3.51699 1.98907,4.84293 1.32602,1.32614 2.94033,1.98916 4.84292,1.98907 m 4.84293,92.18865 c -2e-5,1.32604 -0.46125,2.47912 -1.38369,3.45924 -0.98014,0.92246 -2.13322,1.38369 -3.45924,1.38369 -1.32606,0 -2.47913,-0.46123 -3.45924,-1.38369 -0.92247,-0.98012 -1.3837,-2.1332 -1.38368,-3.45924 l 0,-73.4223 c -2e-5,-1.32596 0.46121,-2.47904 1.38368,-3.45923 0.98011,-0.92239 2.13318,-1.38362 3.45924,-1.3837 1.32602,8e-5 2.4791,0.46131 3.45924,1.3837 0.92244,0.98019 1.38367,2.13327 1.38369,3.45923 l 0,73.4223" />
    <path
       inkscape:connector-curvature="0"
       id="path4209"
       style="font-size:170px;font-style:normal;font-variant:normal;font-weight:normal;font-stretch:normal;line-height:125%;letter-spacing:0px;word-spacing:0px;fill:#1690c6;fill-opacity:1;stroke:#1690c6;stroke-width:6.6677804;stroke-miterlimit:4;stroke-opacity:1;stroke-dasharray:none;font-family:MAXWELL REGULAR;-inkscape-font-specification:MAXWELL REGULAR"
       d="m 303.49238,407.17429 c -1e-5,-6.45719 2.27732,-11.96313 6.832,-16.51785 4.55463,-4.5546 10.06057,-6.83193 16.51785,-6.832 l 0.25945,0 c 6.45719,7e-5 11.96313,2.2774 16.51785,6.832 4.61225,4.55472 6.91841,10.06066 6.91847,16.51785 l 0,12.02085 c -6e-5,6.45727 -2.30622,11.96321 -6.91847,16.51785 -4.55472,4.61233 -10.06066,6.91848 -16.51785,6.91847 l -0.25945,0 c -6.45728,10e-6 -11.96322,-2.30614 -16.51785,-6.91847 -4.55468,-4.55464 -6.83201,-10.06058 -6.832,-16.51785 l 0,-12.02085 m -4.497,78.95707 c 1.21071,-3e-5 2.24848,-0.43243 3.11331,-1.2972 0.92245,-0.86484 1.38368,-1.93144 1.38369,-3.1998 l 0,-40.12715 c 6.34192,6.68787 14.12518,10.03179 23.34985,10.03179 l 0.25945,0 c 8.93631,0 16.57545,-3.14214 22.91744,-9.42642 6.28421,-6.34192 9.42635,-13.98106 9.42642,-22.91744 l 0,-12.02085 c -7e-5,-8.93631 -3.14221,-16.54662 -9.42642,-22.83096 -6.34199,-6.34186 -13.98113,-9.51283 -22.91744,-9.5129 l -0.25945,0 c -8.93639,7e-5 -16.5467,3.17104 -22.83096,9.5129 -6.34194,6.28434 -9.51291,13.89465 -9.5129,22.83096 l 0,74.46007 c -1e-5,1.26836 0.43239,2.33496 1.29722,3.1998 0.86479,0.86477 1.93139,1.29717 3.19979,1.2972" />
    <path
       inkscape:connector-curvature="0"
       id="path4211"
       style="font-size:170px;font-style:normal;font-variant:normal;font-weight:normal;font-stretch:normal;line-height:125%;letter-spacing:0px;word-spacing:0px;fill:#1690c6;fill-opacity:1;stroke:#1690c6;stroke-width:6.6677804;stroke-miterlimit:4;stroke-opacity:1;stroke-dasharray:none;font-family:MAXWELL REGULAR;-inkscape-font-specification:MAXWELL REGULAR"
       d="m 398.39476,452.14436 c 0.57652,0.28828 1.18189,0.43241 1.81611,0.43241 1.90255,0 3.25741,-0.89363 4.06461,-2.68091 0.51884,-1.09542 0.54767,-2.21967 0.0865,-3.37275 -0.40361,-1.15308 -1.18194,-1.98906 -2.33499,-2.50795 -4.72765,-2.07553 -8.50398,-5.30414 -11.32899,-9.68587 -2.82507,-4.38166 -4.23759,-9.13812 -4.23756,-14.26935 l 0,-73.76822 c -3e-5,-1.21063 -0.43243,-2.24839 -1.29722,-3.11331 -0.86482,-0.86469 -1.93143,-1.2971 -3.1998,-1.29721 -1.21074,1.1e-4 -2.24851,0.43252 -3.11331,1.29721 -0.86482,0.86492 -1.29722,1.90268 -1.29721,3.11331 l 0,73.76822 c -1e-5,6.9185 1.90256,13.28926 5.70774,19.11229 3.74749,5.82305 8.7922,10.1471 15.13415,12.97213" />
    <path
       inkscape:connector-curvature="0"
       id="path4213"
       style="font-size:170px;font-style:normal;font-variant:normal;font-weight:normal;font-stretch:normal;line-height:125%;letter-spacing:0px;word-spacing:0px;fill:#1690c6;fill-opacity:1;stroke:#1690c6;stroke-width:6.6677804;stroke-miterlimit:4;stroke-opacity:1;stroke-dasharray:none;font-family:MAXWELL REGULAR;-inkscape-font-specification:MAXWELL REGULAR"
       d="m 444.38074,451.36604 c 9.16693,0 16.95021,-3.34393 23.34985,-10.03178 l 0,12.1938 c -7e-5,6.45724 -2.27739,11.96318 -6.832,16.51786 -4.61236,4.55463 -10.11831,6.83196 -16.51785,6.83199 l -0.25944,0 c -4.78532,-3e-5 -9.13818,-1.35489 -13.05862,-4.0646 -3.45926,-2.30618 -6.11134,-5.33301 -7.95624,-9.0805 -0.51891,-1.09543 -1.35489,-1.84493 -2.50796,-2.2485 -1.15308,-0.40359 -2.30616,-0.31711 -3.45923,0.25944 -1.09543,0.51888 -1.84494,1.35486 -2.2485,2.50795 -0.40359,1.15307 -0.31712,2.30614 0.25944,3.45923 2.4791,5.13118 6.1113,9.31109 10.89659,12.53973 5.41945,3.68983 11.44428,5.53475 18.07452,5.53478 l 0.25944,0 c 8.87866,-3e-5 16.48897,-3.14217 22.83096,-9.42642 6.28421,-6.34195 9.42634,-13.95226 9.42642,-22.83096 l 0,-74.02766 c -8e-5,-1.21066 -0.43247,-2.24843 -1.29721,-3.11332 -0.86488,-0.92238 -1.93148,-1.38361 -3.19979,-1.3837 -1.21081,9e-5 -2.24858,0.46132 -3.11332,1.3837 -0.86487,0.86489 -1.29728,1.90266 -1.29721,3.11332 l 0,39.60826 c -7e-5,6.39961 -2.27739,11.87673 -6.832,16.43137 -4.61236,4.55468 -10.11831,6.832 -16.51785,6.83199 l -0.25944,0 c -6.45728,10e-6 -11.96323,-2.27731 -16.51786,-6.83199 -4.55468,-4.55464 -6.83201,-10.03176 -6.83199,-16.43137 l 0,-39.60826 c -2e-5,-1.21066 -0.43243,-2.24843 -1.29722,-3.11332 -0.86482,-0.92238 -1.90259,-1.38361 -3.11331,-1.3837 -1.2684,9e-5 -2.33499,0.46132 -3.19979,1.3837 -0.86482,0.86489 -1.29723,1.90266 -1.29722,3.11332 l 0,39.60826 c -10e-6,8.87873 3.14213,16.46022 9.42642,22.74447 6.34191,6.34195 13.95223,9.51291 22.83097,9.51291 l 0.25944,0" />
  </g>
</svg>
